<svg xmlns="http://www.w3.org/2000/svg" viewBox="0 0 32 32"><path d="M27,26H5a3,3,0,0,1-3-3V9A3,3,0,0,1,5,6h.93a1,1,0,0,0,.83-.45L8.22,3.34A3,3,0,0,1,10.72,2H21.28a3,3,0,0,1,2.5,1.34l1.46,2.21h0a1,1,0,0,0,.83.45H27a3,3,0,0,1,3,3V23A3,3,0,0,1,27,26ZM5,8A1,1,0,0,0,4,9V23a1,1,0,0,0,1,1H27a1,1,0,0,0,1-1V9a1,1,0,0,0-1-1h-.93a3,3,0,0,1-2.5-1.34L22.11,4.45A1,1,0,0,0,21.28,4H10.72a1,1,0,0,0-.83.45L8.43,6.66A3,3,0,0,1,5.93,8Z"/><circle cx="7" cy="11" r="2"/><path d="M16,23a7,7,0,1,1,7-7A7,7,0,0,1,16,23Zm0-12a5,5,0,1,0,5,5A5,5,0,0,0,16,11Z"/></svg>